<svg width="17" height="11" viewBox="0 0 17 11" fill="none" xmlns="http://www.w3.org/2000/svg">
<path fill-rule="evenodd" clip-rule="evenodd" d="M16.6179 5.13229C16.7117 5.22605 16.7643 5.35323 16.7643 5.48584C16.7643 5.61845 16.7117 5.74563 16.6179 5.83939L12.3753 10.082C12.2815 10.1758 12.1543 10.2285 12.0217 10.2285C11.8891 10.2285 11.7619 10.1758 11.6682 10.082C11.5744 9.98827 11.5217 9.86109 11.5217 9.72848C11.5217 9.59587 11.5744 9.4687 11.6682 9.37493L15.0573 5.98576L0.708 5.98647C0.642256 5.98647 0.577156 5.97352 0.516417 5.94836C0.455677 5.9232 0.400488 5.88633 0.354 5.83984C0.307512 5.79335 0.270636 5.73816 0.245477 5.67742C0.220318 5.61668 0.207368 5.55158 0.207368 5.48584C0.207368 5.4201 0.220318 5.355 0.245477 5.29426C0.270636 5.23352 0.307512 5.17833 0.354 5.13184C0.400488 5.08535 0.455677 5.04848 0.516417 5.02332C0.577156 4.99816 0.642256 4.98521 0.708 4.98521L15.0573 4.98592L11.6682 1.59675C11.5744 1.50298 11.5217 1.37581 11.5217 1.2432C11.5217 1.11059 11.5744 0.983414 11.6682 0.889646C11.7619 0.795878 11.8891 0.743199 12.0217 0.743199C12.1543 0.743199 12.2815 0.795878 12.3753 0.889646L16.6179 5.13229Z" fill="black"/>
</svg>
