<svg width="175" height="43" viewBox="0 0 175 43" fill="none" xmlns="http://www.w3.org/2000/svg">
<path fill-rule="evenodd" clip-rule="evenodd" d="M56.0973 40.2325V40.8475L57.6349 40.4887V40.3862C57.4299 40.3862 57.2249 40.0787 57.2249 39.8225V35.3123H57.0199C56.6099 35.8249 55.8923 35.9786 55.7386 35.9786V36.0811C56.0461 36.0811 56.1486 36.2861 56.1486 36.5424V39.9762C55.9436 40.13 55.5336 40.3862 55.0211 40.3862C54.201 40.3862 53.9448 39.6687 53.9448 39.0024V35.3123H53.7398C53.3298 35.8249 52.6123 35.9786 52.4585 35.9786V36.0811C52.766 36.0811 52.8685 36.2861 52.8685 36.5424V39.31C52.8685 40.13 53.381 40.8475 54.5086 40.8475C55.2773 40.8988 55.7386 40.54 56.0973 40.2325ZM57.4811 40.5912C57.6861 40.5912 57.8911 40.2837 57.8911 40.0275V36.5936C57.8911 36.3886 57.7886 36.1324 57.4811 36.1324V36.0299C57.6861 36.0299 58.3524 35.8249 58.7624 35.3636H58.9674V35.8249C59.3262 35.5173 59.7875 35.2098 60.6587 35.2098C61.7863 35.2098 62.2988 35.9274 62.2988 36.7474V40.0275C62.2988 40.2837 62.5038 40.5912 62.7088 40.5912V40.6937H60.8125V40.5912C61.0175 40.5912 61.2225 40.2837 61.2225 40.0275V37.0036C61.2225 36.3374 60.9662 35.6198 60.1462 35.6198C59.6337 35.6198 59.2237 35.8761 59.0187 36.0299V39.9762C59.0187 40.2325 59.2237 40.54 59.4287 40.54V40.6425H57.5324V40.5912H57.4811ZM63.0163 34.2873C63.0163 34.6461 63.2213 34.8511 63.5801 34.8511C63.9388 34.8511 64.1438 34.6461 64.1438 34.2873C64.1438 33.9798 63.9388 33.7235 63.5801 33.7235C63.2726 33.7748 63.0163 33.9798 63.0163 34.2873ZM62.6063 40.6937H64.5026V40.5912C64.2976 40.5912 64.0926 40.2837 64.0926 40.0275V35.3636H63.8876C63.4776 35.8761 62.76 36.0299 62.6063 36.0299V36.1324C62.9138 36.1324 63.0163 36.3374 63.0163 36.5936V40.0275C63.0163 40.2837 62.8113 40.5912 62.6063 40.5912V40.6937ZM65.4764 36.0299L67.1677 40.6937H67.5264L69.1152 35.9786C69.269 35.6199 69.5252 35.5173 69.7302 35.5173V35.4148H68.7052V35.5173C68.9102 35.5173 68.9615 35.7736 68.9102 36.0299L67.8339 39.2074L66.6551 36.0811C66.5526 35.8249 66.6039 35.5686 66.8089 35.5686V35.4148H64.8101V35.5173C65.0151 35.5173 65.3226 35.6711 65.4764 36.0299ZM73.8816 39.8737C73.5741 40.3862 72.9078 40.8475 71.934 40.8475C70.294 40.8475 69.3202 39.72 69.3202 38.0799C69.3202 36.4399 70.294 35.3123 71.6778 35.3123C72.9078 35.3123 73.8816 36.3374 73.8816 37.8237V38.0287H70.3965C70.5503 39.6687 71.524 40.2837 72.3441 40.2837C73.0103 40.2837 73.3691 40.0787 73.6766 39.72L73.8816 39.8737ZM70.3965 37.5162C70.3965 37.6187 70.3965 37.6699 70.3965 37.7724H72.7028C72.7028 36.3886 72.2416 35.4148 71.524 35.4148C70.909 35.4148 70.3965 35.9274 70.3965 37.5162ZM77.623 36.0299C77.623 35.6198 77.2129 35.2098 76.6492 35.2098C76.1367 35.2098 75.7267 35.4148 75.4704 35.8761V35.3636H75.2654C74.8554 35.8761 74.1379 36.0299 73.9841 36.0299V36.1324C74.2916 36.1324 74.3941 36.3374 74.3941 36.5936V40.0275C74.3941 40.2837 74.1891 40.5912 73.9841 40.5912V40.6937H75.8804V40.5912C75.6754 40.5912 75.4704 40.2837 75.4704 40.0275V36.6961C75.5216 36.0299 75.6754 35.7224 76.0854 35.7224C76.3417 35.7224 76.3417 35.9274 76.3417 36.1324C76.3417 36.5424 76.5467 36.8499 76.9567 36.8499C77.4179 36.8499 77.623 36.4911 77.623 36.0299ZM80.698 37.0549C80.3905 36.3374 80.1343 35.4661 79.3143 35.4661C79.058 35.4661 78.4942 35.6198 78.4942 36.2861C78.4942 37.6699 81.4668 37.1574 81.4668 39.31C81.4668 40.3862 80.493 40.8475 79.3143 40.8475C78.3917 40.8475 77.9305 40.4887 77.7255 40.1812V38.7974H77.9305C78.1867 39.5662 78.648 40.5912 79.4168 40.5912C79.9805 40.5912 80.493 40.2837 80.493 39.6687C80.493 38.1312 77.5717 38.5924 77.5717 36.6449C77.5717 35.9786 78.0842 35.2611 79.3655 35.2611C79.9805 35.2611 80.7493 35.6198 80.9031 35.8761V37.0549H80.698ZM81.8768 36.6961C81.8768 37.0549 82.1331 37.3111 82.5943 37.3111C83.0044 37.3111 83.2094 37.0036 83.2094 36.5936C83.2094 36.2349 82.5944 35.4661 83.7219 35.4661C84.3882 35.4661 84.7469 36.1836 84.7469 37.0549V37.1574C83.5681 37.5161 81.6206 37.8237 81.6206 39.3612C81.6206 40.745 83.1069 40.745 83.3119 40.745C83.8756 40.745 84.3881 40.54 84.6957 40.0275C84.6957 40.54 84.7469 40.745 85.1569 40.745C85.7207 40.745 85.9769 40.4887 86.1819 40.335V40.2325C85.8232 40.2325 85.7719 39.8225 85.7719 39.6175V37.2599C85.7719 35.8761 84.9519 35.2098 83.5169 35.2098C82.9019 35.2611 81.8768 35.7224 81.8768 36.6961ZM82.8506 39.4125C82.8506 38.0287 83.7731 37.7212 84.7469 37.3624V39.3612C84.5419 39.8737 84.2344 40.335 83.6706 40.335C83.1069 40.3862 82.8506 40.0275 82.8506 39.4125ZM86.2845 40.5912C86.4895 40.5912 86.6945 40.2837 86.6945 40.0275V34.6973C86.6945 34.4923 86.592 34.2361 86.2845 34.2361V34.1336C86.4895 34.1336 87.1557 33.9285 87.5657 33.4673H87.7707V39.9762C87.7707 40.2325 87.9757 40.54 88.1808 40.54V40.6425H86.2845V40.5912ZM94.6384 39.8737L94.4334 39.72C94.0747 40.0787 93.7159 40.2837 93.1009 40.2837C92.2809 40.2837 91.1533 39.4637 91.1533 37.5674C91.1533 35.9274 91.5633 35.4148 92.3321 35.4148C92.9471 35.4148 93.2034 35.8249 93.2034 36.4911C93.2034 36.9524 93.4597 37.2599 93.8697 37.2599C94.1772 37.2599 94.5359 37.0549 94.5359 36.5936C94.5359 35.6198 93.5622 35.1586 92.6909 35.1586C91.0508 35.1586 90.0771 36.2861 90.0771 37.9262C90.0771 39.5662 91.0508 40.6937 92.6909 40.6937C93.6647 40.7962 94.3309 40.335 94.6384 39.8737ZM95.0997 36.6961C95.0997 37.0549 95.356 37.3111 95.8172 37.3111C96.2272 37.3111 96.4322 37.0036 96.4322 36.5936C96.4322 36.2349 95.8172 35.4661 96.9448 35.4661C97.611 35.4661 97.9698 36.1836 97.9698 37.0549V37.1574C96.791 37.5161 94.8434 37.8237 94.8434 39.3612C94.8434 40.745 96.3297 40.745 96.5347 40.745C97.0985 40.745 97.611 40.54 97.9185 40.0275C97.9185 40.54 97.9698 40.745 98.3798 40.745C98.9436 40.745 99.1998 40.4887 99.4048 40.335V40.2325C99.0461 40.2325 98.9948 39.8225 98.9948 39.6175V37.2599C98.9948 35.8761 98.1748 35.2098 96.7397 35.2098C96.0735 35.2611 95.0997 35.7224 95.0997 36.6961ZM96.0222 39.4125C96.0222 38.0287 96.9447 37.7212 97.9185 37.3624V39.3612C97.7135 39.8737 97.406 40.335 96.8423 40.335C96.2785 40.3862 96.0222 40.0275 96.0222 39.4125ZM99.4561 42.9488C99.6611 42.9488 99.8661 42.6413 99.8661 42.385V36.5936C99.8661 36.3886 99.7636 36.1324 99.4561 36.1324V36.0299C99.6611 36.0299 100.327 35.8249 100.737 35.3636H100.942V35.5686C101.301 35.3123 101.66 35.2098 102.121 35.2098C103.761 35.2098 104.735 36.3374 104.735 37.9774C104.735 39.6175 103.71 40.745 102.121 40.745C101.711 40.745 101.301 40.5912 100.942 40.3862V42.3338C100.942 42.59 101.147 42.8976 101.352 42.8976V43.0001H99.4561V42.9488ZM100.942 38.4899C100.942 39.4637 101.045 40.6425 102.121 40.6425C103.044 40.6425 103.659 39.6687 103.659 38.0287C103.659 36.3886 103.044 35.4148 102.121 35.4148C100.994 35.4148 100.942 36.7474 100.942 37.7724V38.4899ZM105.247 34.2873C105.247 34.6461 105.453 34.8511 105.811 34.8511C106.17 34.8511 106.375 34.6461 106.375 34.2873C106.375 33.9798 106.17 33.7235 105.811 33.7235C105.453 33.7748 105.247 33.9798 105.247 34.2873ZM104.837 40.6937H106.734V40.5912C106.529 40.5912 106.324 40.2837 106.324 40.0275V35.3636H106.119C105.709 35.8761 104.991 36.0299 104.837 36.0299V36.1324C105.145 36.1324 105.247 36.3374 105.247 36.5936V40.0275C105.247 40.2837 105.042 40.5912 104.837 40.5912V40.6937ZM107.144 35.9274C107.144 35.7224 107.041 35.4661 106.734 35.4661V35.4148C106.939 35.4148 107.605 35.2098 108.015 34.7486H108.22V35.4148H109.091V35.6198H108.271V39.8737C108.271 40.2325 108.476 40.335 108.681 40.335C108.835 40.335 109.04 40.2837 109.143 40.1812L109.296 40.335C109.143 40.4887 108.835 40.8475 108.22 40.8475C107.298 40.8475 107.195 40.13 107.195 39.3612V35.9274H107.144ZM109.501 36.6961C109.501 37.0549 109.758 37.3111 110.219 37.3111C110.629 37.3111 110.834 37.0036 110.834 36.5936C110.834 36.2349 110.219 35.4661 111.346 35.4661C112.013 35.4661 112.371 36.1836 112.371 37.0549V37.1574C111.193 37.5161 109.245 37.8237 109.245 39.3612C109.245 40.745 110.731 40.745 110.936 40.745C111.5 40.745 112.013 40.54 112.32 40.0275C112.32 40.54 112.371 40.745 112.781 40.745C113.345 40.745 113.601 40.4887 113.806 40.335V40.2325C113.448 40.2325 113.396 39.8225 113.396 39.6175V37.2599C113.396 35.8761 112.576 35.2098 111.141 35.2098C110.526 35.2611 109.501 35.7224 109.501 36.6961ZM110.475 39.4125C110.475 38.0287 111.398 37.7212 112.371 37.3624V39.3612C112.166 39.8737 111.859 40.335 111.295 40.335C110.731 40.3862 110.475 40.0275 110.475 39.4125ZM113.858 40.5912C114.063 40.5912 114.268 40.2837 114.268 40.0275V34.6973C114.268 34.4923 114.165 34.2361 113.858 34.2361V34.1336C114.063 34.1336 114.729 33.9285 115.139 33.4673H115.344V39.9762C115.344 40.2325 115.549 40.54 115.754 40.54V40.6425H113.858V40.5912Z" fill="white"/>
<path fill-rule="evenodd" clip-rule="evenodd" d="M56.3536 23.4219V3.2801C56.3536 2.20382 57.2761 0.820026 58.1474 0.820026V0.358766H49.6396V0.820026C50.5109 0.820026 51.4334 2.20382 51.4334 3.2801V23.4219C51.4334 29.3158 56.3023 32.7497 62.35 32.7497C70.0377 32.7497 72.6515 27.317 72.6515 23.5244V3.2801C72.6515 2.20382 73.5741 0.820026 74.4453 0.820026V0.358766H69.8327V0.820026C70.704 0.820026 71.6265 2.20382 71.6265 3.2801V23.5244C71.6265 29.4183 66.9626 31.7759 63.1188 31.7759C59.5824 31.7246 56.3536 29.8796 56.3536 23.4219ZM74.0866 31.7759C74.9579 31.7759 75.8804 30.3921 75.8804 29.3158V13.9916C75.8804 13.0179 75.4704 12.0441 74.0866 12.0441V11.5828C74.9579 11.5828 77.9817 10.7628 79.8268 8.61025H80.8005V10.7116C82.4406 9.37902 84.4394 7.94398 88.1807 7.94398C93.1521 7.94398 95.3559 11.0191 95.3559 14.7604V29.3158C95.3559 30.3921 96.2785 31.7759 97.1497 31.7759V32.2372H88.642V31.7759C89.5133 31.7759 90.4358 30.3921 90.4358 29.3158V15.9905C90.4358 13.0179 89.3083 9.94279 85.7207 9.94279C83.5169 9.94279 81.6718 11.0191 80.8005 11.7878V29.3671C80.8005 30.4434 81.7231 31.8272 82.5943 31.8272V32.2884H74.0866V31.7759ZM98.6873 3.79261C98.6873 5.33016 99.6611 6.30393 101.147 6.30393C102.685 6.30393 103.659 5.33016 103.659 3.79261C103.659 2.30632 102.685 1.33254 101.147 1.33254C99.6611 1.33254 98.6873 2.30632 98.6873 3.79261ZM96.8935 32.2372H105.401V31.7759C104.53 31.7759 103.607 30.3921 103.607 29.3158V8.61025H102.634C100.737 10.8141 97.7135 11.5828 96.8935 11.5828V12.0441C98.2773 12.0441 98.6873 13.0179 98.6873 13.9916V29.3158C98.6873 30.3921 97.7648 31.7759 96.8935 31.7759V32.2372ZM129.592 28.9058L128.926 28.1883C127.081 29.3158 124.467 30.0846 121.597 30.0846C115.088 30.0846 110.68 23.0119 110.68 13.4791C110.68 3.99761 113.243 0.973782 117.958 0.973782C120.725 0.973782 126.312 3.17759 129.079 12.2491H130.053V4.30513C127.593 1.53755 124.108 0 119.957 0C111.449 0 105.76 6.56019 105.76 16.4005C105.76 26.2407 111.398 32.8009 119.957 32.8009C123.954 32.6984 127.388 31.2634 129.592 28.9058ZM131.949 14.3504C131.949 15.888 132.975 17.0155 135.025 17.0155C136.87 17.0155 137.843 15.7342 137.843 13.8891C137.843 12.1978 135.178 8.91776 140.047 8.91776C142.969 8.91776 144.66 12.0441 144.66 15.9392V16.4517C139.483 18.0918 130.822 19.3731 130.822 26.3433C130.822 32.3909 137.485 32.4422 138.458 32.4422C141.021 32.4422 143.174 31.5709 144.66 29.2133C144.711 31.4171 144.967 32.4934 146.812 32.4934C149.221 32.4934 150.4 31.4171 151.425 30.7509V30.2896C149.734 30.2896 149.631 28.5471 149.631 27.4708V16.913C149.631 10.6603 145.992 7.84147 139.637 7.84147C136.46 7.94398 131.949 10.0965 131.949 14.3504ZM136.203 26.5483C136.203 20.4493 140.303 18.9118 144.66 17.4767V26.3433C143.789 28.5983 142.405 30.6996 139.842 30.6996C137.382 30.7509 136.203 29.2646 136.203 26.5483ZM151.323 42.2312C152.194 42.2312 153.116 40.8474 153.116 39.7711V13.9916C153.116 13.0179 152.706 12.0441 151.323 12.0441V11.5828C152.194 11.5828 155.218 10.7628 157.063 8.61025H158.036V9.58403C159.574 8.50775 161.317 7.94398 163.264 7.94398C170.491 7.94398 174.949 12.9154 174.949 20.3468C174.949 27.7783 170.491 32.7497 163.264 32.7497C161.368 32.7497 159.574 32.1859 158.036 31.1096V39.8224C158.036 40.8987 158.959 42.2824 159.83 42.2824V42.7437H151.323V42.2312ZM158.088 22.3969C158.139 26.8045 158.6 31.9297 163.315 31.9297C167.313 31.9297 170.029 27.522 170.029 20.2956C170.029 13.1204 167.313 8.6615 163.315 8.6615C158.344 8.6615 158.088 14.5042 158.088 19.1168V22.3969Z" fill="white"/>
<path fill-rule="evenodd" clip-rule="evenodd" d="M38.2831 11.7296C38.2986 11.9406 38.2986 12.1477 38.2831 12.3521V12.4876H38.2702C38.0207 14.8018 35.8526 16.5951 33.4531 16.5951H20.9386C19.3846 16.6784 18.1797 17.7958 18.0776 19.4237C18.0582 21.2704 19.1648 22.66 20.958 22.9244L32.9877 22.97V24.2241L20.958 24.1785C18.3167 23.9832 16.4124 22.2849 16.3116 19.498V16.5964V11.7309C16.4926 9.19922 18.0582 7.09468 21.1416 6.86547H32.1926H32.2172C34.8843 6.86547 37.0472 4.68669 37.0472 2H38.2818V11.7309L38.2831 11.7296ZM0.00129282 41.5137C2.18229 40.1436 6.78345 36.4385 16.8184 36.251C19.7595 36.1963 22.0827 36.6586 25.073 37.3241C27.5566 37.8763 28.3516 38.0078 31.8694 38.0404C36.7123 38.086 41.0899 36.5818 44 35.3212C35.6419 45.1563 30.309 41.7221 16.7796 39.9496C11.5462 39.2646 6.79767 39.7998 0 41.515L0.00129282 41.5137ZM30.6684 27.4538C34.1913 27.4538 37.0485 24.577 37.0485 21.0269H38.2831V28.5361C38.2521 32.1122 36.0323 35.1336 32.9101 36.2888C32.5663 36.3005 32.2198 36.3057 31.8707 36.3031C28.3529 36.2705 27.5579 36.1377 25.0743 35.5868C22.084 34.9226 19.7608 34.459 16.8196 34.5137C14.6917 34.5541 12.8093 34.752 11.1416 35.0516C9.21655 33.5409 7.97802 31.185 7.97802 28.5361C7.97802 27.9761 8.11248 27.2129 8.28313 26.4758L10.9838 14.8135C10.9916 14.7849 10.9981 14.7549 11.0045 14.725L11.0058 14.7172C11.0394 14.5596 11.0575 14.3968 11.0575 14.2288C11.0575 12.9421 10.022 11.9002 8.74596 11.9002V11.3259V10.6565C10.5805 10.6565 12.0672 9.15885 12.0672 7.31086H13.3019V21.0269V21.0295C13.3019 24.5783 16.1577 27.4551 19.682 27.4551H19.6871H24.2961H30.671L30.6684 27.4538Z" fill="white"/>
</svg>
